******************************************************************************* Carnage.2011.R5.CAM.AUDiO.XviD-PRESTiGE
******************************************************************************* General Information:
Complete name: Carnage.2011.R5.CAM.AUDiO.XviD-PRESTiGE
Format: AVI
Format/Info: Audio Video Interleave
File size: 699 MiB
Duration: 1h 16mn
Overall bit rate: 1 283 Kbps
Writing library: MPlayer
Subs: N/A
Source: BiDA Many THANKS
Encoder: akosipalos iMDB: http://www.imdb.com/title/tt1692486/ Video
ID: 0
Format: MPEG-4 Visual
Format profile: Advanced Simple@L5
Format settings, BVOP: 2
Format settings, QPel: No
Format settings, GMC: No warppoints
Format settings, Matrix: Default (H.263)
Codec ID: XVID
Codec ID/Hint: XviD
Duration: 1h 16mn
Bit rate: 828 Kbps
Width: 640 pixels
Height: 272 pixels
Display aspect ratio: 2.35:1
Frame rate: 23.976 fps
Color space: YUV
Chroma subsampling: 4:2:0
Bit depth: 8 bits
Scan type: Progressive
Compression mode: Lossy
Bits/(Pixel*Frame): 0.198
Stream size: 451 MiB (64%)
Writing library: XviD 1.2.1 (UTC 2008-12-04) Audio
ID: 1
Format: AC-3
Format/Info: Audio Coding 3
Mode extension: CM (complete main)
Codec ID: 2000
Duration: 1h 16mn
Bit rate mode: Constant
Bit rate: 448 Kbps
Channel(s): 2 channels
Channel positions: Front: L R
Sampling rate: 48.0 KHz
Bit depth: 16 bits
Compression mode: Lossy
Stream size: 244 MiB (35%)
Alignment: Aligned on interleaves
Interleave, duration: 64 ms (1.53 video frames)
Interleave, preload duration: 192 ms Plot:

Two pairs of parents hold a cordial meeting after their sons are involved in a fight, though as
their time together progresses, increasingly childish behavior throws the evening into chaos Cast:
Jodie Foster, Kate Winslet and Christoph Waltz 

Screens: 
 
http://i824.photobucket.com/albums/zz161/akosipalos/1-182.png
 
http://i824.photobucket.com/albums/zz161/akosipalos/2-160.png
 
http://i824.photobucket.com/albums/zz161/akosipalos/4-155.png
 
http://i824.photobucket.com/albums/zz161/akosipalos/3-161.png



Release Notes:

WE DONT RELEASE EVERYTHING TO OTHERS SITES YOU WANT MORE OF OUR STUFF COME FIND US AT

WE ARE LOOKING FOR SUPPLIERS BLURAY CAM R5 PRE RETAIL DVD GOT SOMETHING WE MIGHT LIKE WHEN YOU FIND US TELL US

ENCODER'S - ANYTHING AT ALL EMAIL US AT..... prestige@hushmail.me

** ** ** ** ** ** ** ** **

PRESTiGE is the level of respect at which one is regarded by others....RIzE Above Or Sink Below

GREETZ:

| Twisted | Bigguy | CTFX | Whitestag13 | THoRN | SANTi | PA4U2C | Jungledave | mtyy | floridajoe | marsby | cld | Stortrapp
| Stoner | Rock | Ulap | rizal | mannilim | musikera | centserick2 | Tukmol | AMB | RiZAL Team RG | rock3r | canislupus | sickie |
fun2knytz and To All Encoders Past And Present  PRESTiGE is the level of respect at which one is regarded by others....RIzE Above Or Sink Below...
Generated with Cool NFO Creator - http://fly.to/coolbeans